<svg id="Capa_1" data-name="Capa 1" xmlns="http://www.w3.org/2000/svg" viewBox="0 0 411.6 401.59"><defs><style>.cls-1{fill:#ffaa91;}</style></defs><title>call-peach</title><path class="cls-1" d="M284.39,215.8c-.8,1.2-.8,2.4-1.2,4a9.63,9.63,0,1,0,19.2,1.6,19.63,19.63,0,0,1,.4-4.4v-4.4a105.72,105.72,0,0,0-5.6-33.6c-4.8-14-13.2-26.4-23.2-36.8a101.25,101.25,0,0,0-44.8-26A106.1,106.1,0,0,0,204,113a67.8,67.8,0,0,0-8.8.4l-8.4,1.2c-5.2.8-8.8,6-7.6,10.8.8,5.2,6,8.8,10.8,7.6a39.41,39.41,0,0,1,6.8-.8H198c2,0,4-.4,6-.4a79.14,79.14,0,0,1,56.8,23.6,80.6,80.6,0,0,1,23.6,56v.8Q284.4,214.6,284.39,215.8Z" transform="translate(0 -5)"/><path class="cls-1" d="M337.2,224.6a9.63,9.63,0,1,0,19.2,1.6c.4-4.4.4-8.8.4-13.2a179.27,179.27,0,0,0-2-25.6A153.43,153.43,0,0,0,216,60.2c-4-.4-8.4-.4-12.4-.4-4.4,0-8.8,0-13.2.4s-8.8.8-13.2,1.6c-5.2.8-8.8,6-7.6,10.8.8,5.2,6,8.8,10.8,7.6,2.8-.4,5.2-.8,8-1.2,1.2,0,2.4-.4,3.6-.4,4-.4,8-.4,11.6-.4a137.85,137.85,0,0,1,38.8,5.6,133,133,0,0,1,56.4,33.6,137.39,137.39,0,0,1,30,45.2,135.2,135.2,0,0,1,9.6,49.6v4A32.71,32.71,0,0,0,337.2,224.6Z" transform="translate(0 -5)"/><path class="cls-1" d="M350.8,66.2A207.67,207.67,0,0,0,203.2,5c-6,0-12,.4-18,.8a138.76,138.76,0,0,0-18,2.4c-5.2.8-8.8,6-7.6,10.8.8,5.2,6,8.8,10.8,7.6,2.8-.4,5.2-.8,8-1.2a59.68,59.68,0,0,1,8.4-.8c5.6-.4,10.8-.8,16.4-.8A188.47,188.47,0,0,1,392,212.6v8.8c0,2.4-.4,4.8-.4,7.6a9.63,9.63,0,1,0,19.2,1.6c.4-6,.8-12,.8-17.6A207.1,207.1,0,0,0,350.8,66.2Z" transform="translate(0 -5)"/><path class="cls-1" d="M396.8,308.6l-70.8-38c-23.6-12.8-24.4-4.4-49.2,22-6,6.4-17.2,23.2-30.4,20-27.6-6.8-79.2-47.2-96-65.6-8-8.8-42.4-50.8-42.8-64.4-.8-20.8,44.8-31.2,30-70.8L106,41C76.39-27-6.41,81.8.39,132.6,18,257.8,237.59,460.2,360,393.4,387.2,378.2,424,325,396.8,308.6Z" transform="translate(0 -5)"/></svg>