<svg id="Layer_1" data-name="Layer 1" xmlns="http://www.w3.org/2000/svg" viewBox="0 0 51.9 50.58"><defs><style>.cls-1{fill:#fff;}</style></defs><title>coding</title><path class="cls-1" d="M5.72,3H38.15C40.84,3,47.24,2,49,4.76c1.08,1.68.07,7.8.09,9.87l.1,10.86.1,10.86,0,4.94c0,3,.45,3.81-1.76,6s-3,1.74-5.64,1.71L36.1,49l-9.7-.11-10.67-.12-4.85-.05c-.92,0-5.06.41-5.82-.07-3.3-2-2.59-7.59-2.61-10.86,0-3.91,0-7.81,0-11.72C2.46,22.57.38,2.89,6.19,3.21,7.64,3.29,7.64,1,6.19,1,2,.73.42,3.7.23,7.52-.17,15.63.21,23.86.2,32c0,3.72-.07,7.44.1,11.15.09,1.92-.16,5.06,1.33,6.61,1.15,1.19,2.9,1.07,4.4,1.12,4.2.14,8.41.09,12.61.14l24.25.27c4.5.05,7.88,0,8.59-5.08,1.06-7.58,0-16-.08-23.67L51.3,10.69c0-2.3.72-5.84-.49-7.93-.81-1.4-2.13-1.51-3.64-1.7A105.89,105.89,0,0,0,34.22.76H5.72A1.13,1.13,0,0,0,5.72,3Z" transform="translate(-0.05 -0.71)"/><path class="cls-1" d="M1.47,15.27H49.34a1.13,1.13,0,0,0,0-2.25H1.47a1.13,1.13,0,0,0,0,2.25Z" transform="translate(-0.05 -0.71)"/><path class="cls-1" d="M33.72,28.46,37,30.58c1,.63,3.07,1.55,3.4,2.74l.52-1.27c-1.31.87-2.71,1.68-3.94,2.67a10.55,10.55,0,0,1-4.23,2.56,1.13,1.13,0,0,0,.6,2.17,9.88,9.88,0,0,0,4.09-2.11A45,45,0,0,1,42.06,34a1.16,1.16,0,0,0,.52-1.27c-.4-1.47-1.43-2.14-2.65-2.94-1.68-1.1-3.39-2.18-5.08-3.27-1.22-.79-2.35,1.16-1.14,1.94Z" transform="translate(-0.05 -0.71)"/><path class="cls-1" d="M31.23,23.14c-4.15,5.15-6.9,11.44-10,17.24-.68,1.28,1.26,2.41,1.94,1.14,3-5.6,5.65-11.82,9.65-16.79.9-1.12-.68-2.72-1.59-1.59Z" transform="translate(-0.05 -0.71)"/><path class="cls-1" d="M17.56,26.66a12.28,12.28,0,0,1-3.61,4.17C13.18,31.39,12.21,32,12,33a1.83,1.83,0,0,0,1,1.92c1.59,1.17,3.31,2.08,4.86,3.33,1.12.9,2.72-.68,1.59-1.59-1-.78-2-1.53-3-2.23-.47-.32-1-.57-1.45-.93a.57.57,0,0,0-.7-.13,8.37,8.37,0,0,1,1-.77A14.25,14.25,0,0,0,19.5,27.8a1.13,1.13,0,0,0-1.94-1.14Z" transform="translate(-0.05 -0.71)"/><path class="cls-1" d="M5.79,8.81l0-.13L6,7.59l.5-.15.5.29.06.18a1.15,1.15,0,0,0-1.38-.79A1.14,1.14,0,0,0,4.93,8.5a1.59,1.59,0,0,0,2.7.68,1.12,1.12,0,0,0,.29-1.09,1.86,1.86,0,0,0-.54-.86,1.15,1.15,0,0,0-1.59,0,1.13,1.13,0,0,0,0,1.59Z" transform="translate(-0.05 -0.71)"/><path class="cls-1" d="M10.28,8.08a1.68,1.68,0,0,0,.46,1.11,1.13,1.13,0,0,0,1.59,0,2.41,2.41,0,0,0,.3-.42,1.14,1.14,0,0,0-.18-1.36,1.65,1.65,0,0,0-2.23,0,1.13,1.13,0,0,0,0,1.59,1.15,1.15,0,0,0,1.59,0l.09-.07-.5.29a.17.17,0,0,0-.15,0l-.5-.29.09.07-.18-1.36,0,0h1.59l-.08-.09.29.5v.07A1.15,1.15,0,0,0,11.4,7a1.14,1.14,0,0,0-1.12,1.12Z" transform="translate(-0.05 -0.71)"/><path class="cls-1" d="M15.51,7.64l-.07.12.4-.4-.12.06h1.14l-.25-.19L16.82,9l.12-.13L15,8.08A1.5,1.5,0,0,0,17.64,9a1.14,1.14,0,0,0-.23-1.77l-.11-.08.4.4,0,0A1.16,1.16,0,0,0,16.3,6.8a1.13,1.13,0,0,0-.79,1.38,2.09,2.09,0,0,0,.76,1L16,7.41h0l.57-.15,0,0,.5.29,0,.05.15.57V8.08a1.14,1.14,0,0,0-1.92-.8l-.12.13a1.15,1.15,0,0,0,.23,1.77l.25.19a1.12,1.12,0,0,0,1.14,0,1.51,1.51,0,0,0,.6-.59c.78-1.23-1.17-2.36-1.94-1.14Z" transform="translate(-0.05 -0.71)"/></svg>