<svg id="Слой_1" data-name="Слой 1" xmlns="http://www.w3.org/2000/svg" viewBox="0 0 482 481.78"><defs><style>.cls-1{fill:#fff;}</style></defs><title>consalting</title><path class="cls-1" d="M472.59,248.31a31.79,31.79,0,0,0-45.18,0l-93.67,93.54-.18.18a31.94,31.94,0,0,0-28.83-45.69H137a8,8,0,0,0-5.65,2.34l-27.72,27.72-19.61-34a8,8,0,0,0-10.91-2.92L4,329.43a8,8,0,0,0-2.92,10.91L80.93,478.65a8,8,0,0,0,10.91,2.92L161,441.64a8,8,0,0,0,2.92-10.91l-13-22.6H341.39a40.21,40.21,0,0,0,28.25-11.69l102.92-103a31.69,31.69,0,0,0,0-45.13ZM90.77,463.74,18.9,339.27l55.32-31.94L146.09,431.8Zm370.48-181.6-102.93,103a24.14,24.14,0,0,1-16.93,7H141.65l-3.29-5.7L112,340.69l28.39-28.39h164.4a16,16,0,0,1,0,31.94H216.89v16H328.05a23.83,23.83,0,0,0,17-7.05l93.7-93.57a16.19,16.19,0,0,1,22.55,0,15.74,15.74,0,0,1,0,22.56Z" transform="translate(0 -0.86)"/><path class="cls-1" d="M161,272.38H336.68a8,8,0,0,0,8-8V8.85a8,8,0,0,0-8-8H161a40,40,0,0,0-39.93,39.93V232.45A39.89,39.89,0,0,0,161,272.38Zm0-16a24,24,0,0,1,0-47.91h167.7v16H161v16h167.7v16Zm167.7-63.89H169V16.84H328.69ZM137,40.79a24,24,0,0,1,16-22.49v175c-.57.12-1.09.36-1.65.51a40.28,40.28,0,0,0-4.79,1.48c-.8.31-1.55.65-2.32,1a40.3,40.3,0,0,0-4.23,2.3c-.67.42-1.35.8-2,1.27-.33.22-.69.39-1,.63Z" transform="translate(0 -0.86)"/><path class="cls-1" d="M200.92,112.66h95.83a8,8,0,0,0,8-8V56.76a8,8,0,0,0-8-8H200.92a8,8,0,0,0-8,8v47.91A8,8,0,0,0,200.92,112.66Zm8-47.91h79.86V96.69H208.91Z" transform="translate(0 -0.86)"/></svg>