<svg id="Слой_1" data-name="Слой 1" xmlns="http://www.w3.org/2000/svg" viewBox="0 0 488 384"><defs><style>.cls-1{fill:#fff;}</style></defs><title>interface</title><path class="cls-1" d="M427,103a8,8,0,0,0-8-8H69a8,8,0,0,0-8,8V319a8,8,0,0,0,8,8H419a8,8,0,0,0,8-8ZM200,231.19l36-68.11V199a20.48,20.48,0,1,0,16,0V163.09l36.07,68.18L275.3,281H213.74Zm48.51-13.33a4.48,4.48,0,1,1-4.48-4.48A4.48,4.48,0,0,1,248.48,217.86ZM205,297h78v14H205Zm206,14H299V288.93a7.86,7.86,0,0,0-7.34-8l12.6-48.74a8,8,0,0,0-.64-5.73l-52.57-99.36a8,8,0,0,0-14.12,0l-52.59,99.36a8.09,8.09,0,0,0-.64,5.91L197.14,281h-.44a7.69,7.69,0,0,0-7.7,7.93V311H77V111H411Z" transform="translate(0 -52)"/><path class="cls-1" d="M480.31,348H467V100.39A48.58,48.58,0,0,0,418.31,52H69.69A48.58,48.58,0,0,0,21,100.39V348H7.69C3.27,348,0,352,0,356.41v31.2A48.21,48.21,0,0,0,48.26,436H439.74A48.2,48.2,0,0,0,488,387.61v-31.2C488,352,484.73,348,480.31,348ZM37,100.39A32.56,32.56,0,0,1,69.69,68H418.31A32.56,32.56,0,0,1,451,100.39V348H303.52a8.21,8.21,0,0,0-5.88,2.79l-8.23,8.83A32.55,32.55,0,0,1,265.45,370h-42.9a32.44,32.44,0,0,1-23.95-10.29l-8.23-9a8.11,8.11,0,0,0-5.89-2.68H37ZM472,387.61A32.19,32.19,0,0,1,439.74,420H48.26A32.19,32.19,0,0,1,16,387.61V364H181l5.86,6.35A48.7,48.7,0,0,0,222.55,386h42.9a48.7,48.7,0,0,0,35.71-15.65L307,364H472Z" transform="translate(0 -52)"/></svg>