<svg id="Слой_1" data-name="Слой 1" xmlns="http://www.w3.org/2000/svg" viewBox="0 0 490.05 489.96"><defs><style>.cls-1{fill:#fff;}</style></defs><title>seo</title><path class="cls-1" d="M32.6,179.6,328.8,475.8l147-147L179.6,32.6,53.1,53.1ZM328.8,501a10.29,10.29,0,0,1-7.4-3.1L14.1,190.6a10.1,10.1,0,0,1-2.9-9L33.8,42.4a10.4,10.4,0,0,1,8.6-8.6L181.5,11.2a10.39,10.39,0,0,1,9,2.9L497.9,321.5a10.38,10.38,0,0,1,0,14.8L336.2,497.9A10.29,10.29,0,0,1,328.8,501Z" transform="translate(-10.97 -11.04)"/><path class="cls-1" d="M108.1,70.6a37.5,37.5,0,1,0,37.5,37.5A37.51,37.51,0,0,0,108.1,70.6Zm0,54.1a16.6,16.6,0,1,1,16.6-16.6A16.62,16.62,0,0,1,108.1,124.7Z" transform="translate(-10.97 -11.04)"/><path class="cls-1" d="M497.9,321.4,190.6,14.1a10.19,10.19,0,0,0-9-2.9L42.4,33.8a10.4,10.4,0,0,0-8.6,8.6L11.1,181.5a10.29,10.29,0,0,0,2.9,9L321.4,497.9c6.5,5.7,12.7,2,14.7,0L497.9,336.1c2-1.9,5.9-8.2,0-14.7ZM328.8,475.8,32.6,179.6,53.1,53.1,179.6,32.5,475.8,328.7Z" transform="translate(-10.97 -11.04)"/><path class="cls-1" d="M169.2,164.1c.3,5.7,3.3,13.2,8.9,22.6,4.4,7.3,7.1,12,8.2,14.2,1.5,3.2,2.2,5.9,2,8a9,9,0,0,1-2.7,5.6c-2.5,2.5-5.9,3.6-10.1,3.3s-8.5-2.8-13-7.3c-4.2-4.2-6.5-8.7-6.9-13.3s1.3-9.6,5.1-15l-14.9-12.3c-6.8,8.6-9.9,17.3-9.3,26s5.3,17.4,14.1,26.2c6,6,11.9,10.2,17.6,12.5a27.85,27.85,0,0,0,17,1.6,29,29,0,0,0,14.4-7.8c4.4-4.4,7.1-9,8.2-13.8a28.34,28.34,0,0,0-.6-14.7c-1.5-5-4.9-11.6-10.1-20s-7.9-14.2-8.2-17.4a7.86,7.86,0,0,1,2.1-6.3,7.17,7.17,0,0,1,6.5-2.1c4,.6,8,3,12,7s6.1,7.6,6.5,11.2-.9,7.4-3.8,11.5l14.6,13.3c6.1-6.6,8.9-13.9,8.3-22.1s-5.2-16.6-13.9-25.3c-5.3-5.3-10.6-9-16-11.2a25.92,25.92,0,0,0-28.5,5.3c-5.4,5.5-7.9,12.2-7.5,20.3Z" transform="translate(-10.97 -11.04)"/><polygon class="cls-1" points="232.72 301.66 244.32 290.06 205.72 251.46 224.53 232.66 259.23 267.36 270.93 255.66 236.22 221.06 251.53 205.76 288.82 242.96 300.52 231.26 249.22 180.06 180.22 249.16 232.72 301.66"/><path class="cls-1" d="M286.8,287.6c-11,11-16.6,22.7-16.8,35s4.8,23.6,15.1,33.9c10.1,10.1,21.4,15.1,33.8,14.9s24.1-5.9,35.3-17.1,17-23.1,17.2-35.5-4.8-23.7-15-33.9a54.38,54.38,0,0,0-17.6-12.2,37.25,37.25,0,0,0-15.1-2.7,47.7,47.7,0,0,0-15.9,3c-7,2.7-14,7.6-21,14.6Zm38,1.4c7.5-.4,14.1,2.2,19.8,8s8.4,12.3,8,19.7-4.6,15-12.5,22.9-15.8,12.2-23.4,12.7a26.37,26.37,0,0,1-27.4-27.5c.4-7.6,4.5-15.4,12.4-23.2q11.85-12,23.1-12.6Z" transform="translate(-10.97 -11.04)"/></svg>