<svg id="Capa_1" data-name="Capa 1" xmlns="http://www.w3.org/2000/svg" viewBox="0 0 447.7 476"><defs><style>.cls-1{fill:#fff;}</style></defs><title>support</title><path class="cls-1" d="M400.85,181V162.7c0-43.8-15.5-84.5-43.6-114.7-28.8-31-68.4-48-111.6-48h-15.1c-43.2,0-82.8,17-111.6,48-28.1,30.2-43.6,70.9-43.6,114.7V181a65.67,65.67,0,0,0-61.2,65.4V275a65.6,65.6,0,0,0,65.5,65.5h36.9a12,12,0,0,0,12-12V192.8a12,12,0,0,0-12-12H99.35V162.7c0-79.1,56.4-138.7,131.1-138.7h15.1c74.8,0,131.1,59.6,131.1,138.7v18.1h-17.2a12,12,0,0,0-12,12V328.4a12,12,0,0,0,12,12h16.8c-4.9,62.6-48,77.1-68,80.4a42.2,42.2,0,0,0-40.1-29.1h-30a42.15,42.15,0,0,0,0,84.3h30.1a42.2,42.2,0,0,0,40.6-31,113.51,113.51,0,0,0,40.7-13.9c21.7-12.7,47.4-38.6,50.8-90.8a65.58,65.58,0,0,0,61.5-65.4V246.3A65.33,65.33,0,0,0,400.85,181ZM104.75,316.4H79.85a41.53,41.53,0,0,1-41.5-41.5V246.3a41.53,41.53,0,0,1,41.5-41.5h24.9ZM268.25,452h-30.1a18.1,18.1,0,1,1,0-36.2h30.1a18.1,18.1,0,0,1,0,36.2ZM438,274.9a41.53,41.53,0,0,1-41.5,41.5h-24.9V204.8h24.9A41.53,41.53,0,0,1,438,246.3Z" transform="translate(-14.15)"/></svg>